<?xml version="1.0" encoding="UTF-8"?>
<svg version="1.1" xmlns="http://www.w3.org/2000/svg" width="24" height="24">
<path d="M0 0 C3.6875 0.875 3.6875 0.875 7 2 C7.33 1.67 7.66 1.34 8 1 C10.33297433 0.95907063 12.66705225 0.95758277 15 1 C15.95024979 4.69541586 15.95024979 7.30458414 15 11 C12.03 11 9.06 11 6 11 C5.67 10.34 5.34 9.68 5 9 C4.4225 9.37125 3.845 9.7425 3.25 10.125 C1 11 1 11 -1.25 10.125 C-1.8275 9.75375 -2.405 9.3825 -3 9 C-3.1875 5.625 -3.1875 5.625 -3 2 C-2.01 1.34 -1.02 0.68 0 0 Z " fill="#B1B3B6" transform="translate(5,6)"/>
<path d="M0 0 C1.134375 0.020625 2.26875 0.04125 3.4375 0.0625 C4.13824844 3.215868 4.4375 5.78974974 4.4375 9.0625 C1.4675 9.0625 -1.5025 9.0625 -4.5625 9.0625 C-4.66015625 2.91015625 -4.66015625 2.91015625 -4.5625 1.0625 C-3.5625 0.0625 -3.5625 0.0625 0 0 Z " fill="#B5BAC0" transform="translate(16.5625,6.9375)"/>
<path d="M0 0 C2 1.25 2 1.25 4 3 C4 4.32 4 5.64 4 7 C4.99 7.33 5.98 7.66 7 8 C4 9 4 9 1.8125 8.0625 C1.214375 7.711875 0.61625 7.36125 0 7 C0 4.69 0 2.38 0 0 Z " fill="#689BC5" transform="translate(2,8)"/>
<path d="M0 0 C0.33 0.66 0.66 1.32 1 2 C1.66 2 2.32 2 3 2 C3 1.34 3 0.68 3 0 C4.98 0 6.96 0 9 0 C9 0.99 9 1.98 9 3 C6.03 3 3.06 3 0 3 C0 2.01 0 1.02 0 0 Z " fill="#D2D5D9" transform="translate(12,13)"/>
<path d="M0 0 C1.32 0.33 2.64 0.66 4 1 C3.67 2.32 3.34 3.64 3 5 C1.35 4.67 -0.3 4.34 -2 4 C-1.34 2.68 -0.68 1.36 0 0 Z " fill="#B4C8D6" transform="translate(5,6)"/>
<path d="M0 0 C0 1.65 0 3.3 0 5 C-1.32 5 -2.64 5 -4 5 C-4 3.68 -4 2.36 -4 1 C-2 0 -2 0 0 0 Z " fill="#D9905E" transform="translate(10,10)"/>
<path d="M0 0 C1.65 0 3.3 0 5 0 C5 1.32 5 2.64 5 4 C3.68 4 2.36 4 1 4 C0.67 2.68 0.34 1.36 0 0 Z " fill="#CDD0D5" transform="translate(16,8)"/>
</svg>
