<?xml version="1.0" encoding="UTF-8"?>
<svg version="1.1" xmlns="http://www.w3.org/2000/svg" width="24" height="24">
<path d="M0 0 C0.969375 0.37125 1.93875 0.7425 2.9375 1.125 C3.9275 0.795 4.9175 0.465 5.9375 0.125 C7.60371616 0.08625079 9.27144172 0.0799714 10.9375 0.125 C11.9140625 6.1796875 11.9140625 6.1796875 11.9375 8.125 C9.9375 10.125 9.9375 10.125 6.5 10.3125 C2.9375 10.125 2.9375 10.125 -0.0625 9.125 C-1.0525 9.455 -2.0425 9.785 -3.0625 10.125 C-5.25 9 -5.25 9 -7.0625 7.125 C-7.5625 4.625 -7.5625 4.625 -7.0625 2.125 C-4.59052571 -0.82235396 -3.74075076 -1.06878593 0 0 Z " fill="#0D2743" transform="translate(9.0625,6.875)"/>
<path d="M0 0 C2.125 0.375 2.125 0.375 4 1 C4.6875 3.3125 4.6875 3.3125 5 6 C3.5625 7.8125 3.5625 7.8125 2 9 C0.68 8.34 -0.64 7.68 -2 7 C-2.125 4.625 -2.125 4.625 -2 2 C-1.34 1.34 -0.68 0.68 0 0 Z " fill="#195E96" transform="translate(5,8)"/>
<path d="M0 0 C1.32 0.33 2.64 0.66 4 1 C4.33 2.65 4.66 4.3 5 6 C4.01 6.33 3.02 6.66 2 7 C1.34 4.69 0.68 2.38 0 0 Z " fill="#BB987F" transform="translate(5,8)"/>
</svg>
